<?xml version="1.0" encoding="UTF-8"?>
<svg width="149px" height="59px" viewBox="0 0 149 59" version="1.1" xmlns="http://www.w3.org/2000/svg" xmlns:xlink="http://www.w3.org/1999/xlink">
    <g id="Page-1" stroke="none" stroke-width="1" fill="none" fill-rule="evenodd">
        <path d="M11.016,19.696 L28.616,19.696 L28.616,28.72 L11.016,28.72 L11.016,46 L0.84,46 L0.84,1.904 L31.624,1.904 L31.624,10.992 L11.016,10.992 L11.016,19.696 Z M45.448,34.992 C45.448,35.6320032 45.4906662,36.1439981 45.576,36.528 C45.6613338,36.9120019 45.8426653,37.2213322 46.12,37.456 C46.3973347,37.6906678 46.802664,37.8613328 47.336,37.968 C47.869336,38.0746672 48.5839955,38.1493331 49.48,38.192 L49.608,46 C48.882663,46.1280006 48.1466704,46.2133331 47.4,46.256 C46.6533296,46.2986669 45.9813363,46.32 45.384,46.32 C43.250656,46.32 41.5653395,46.0960022 40.328,45.648 C39.0906605,45.1999978 38.1626698,44.5600042 37.544,43.728 C36.9253302,42.8959958 36.5306675,41.9040058 36.36,40.752 C36.1893325,39.5999942 36.104,38.320007 36.104,36.912 L36.104,0.176 L45.448,0.176 L45.448,34.992 Z M81.48,32.752 L63.048,32.752 L63.048,33.136 C63.048,34.7146746 63.5279952,35.866663 64.488,36.592 C65.4480048,37.317337 66.5466605,37.68 67.784,37.68 C68.5520038,37.68 69.5866602,37.5733344 70.888,37.36 C72.1893398,37.1466656 73.6293254,36.4853389 75.208,35.376 L80.2,41.84 C79.133328,42.8213382 78.0986717,43.5999971 77.096,44.176 C76.0933283,44.7520029 75.0906717,45.1999984 74.088,45.52 C73.0853283,45.8400016 72.0826717,46.0533328 71.08,46.16 C70.0773283,46.2666672 69.0640051,46.32 68.04,46.32 C66.1626573,46.32 64.3493421,46.0853357 62.6,45.616 C60.8506579,45.1466643 59.3146733,44.4320048 57.992,43.472 C56.6693267,42.5119952 55.6133373,41.2853408 54.824,39.792 C54.0346627,38.2986592 53.64,36.5493434 53.64,34.544 L53.64,26.352 C53.64,24.3039898 54.0133296,22.5120077 54.76,20.976 C55.5066704,19.4399923 56.5199936,18.138672 57.8,17.072 C59.0800064,16.005328 60.5519917,15.205336 62.216,14.672 C63.8800083,14.138664 65.6506573,13.872 67.528,13.872 C69.5333434,13.872 71.3893248,14.1493306 73.096,14.704 C74.8026752,15.2586694 76.2746605,16.0586614 77.512,17.104 C78.7493395,18.1493386 79.7199965,19.4506589 80.424,21.008 C81.1280035,22.5653411 81.48,24.3679898 81.48,26.416 L81.48,32.752 Z M72.008,26.48 C72.008,25.1999936 71.5600045,24.2186701 70.664,23.536 C69.7679955,22.8533299 68.7440058,22.512 67.592,22.512 C66.3973274,22.512 65.3413379,22.8853296 64.424,23.632 C63.5066621,24.3786704 63.048,25.3706605 63.048,26.608 L63.048,26.864 L72.008,26.864 L72.008,26.48 Z M106.056,46 L100.616,36.848 L95.176,46 L84.36,46 L95.368,29.808 L84.808,14.256 L95.496,14.256 L100.616,22.96 L105.672,14.256 L116.424,14.256 L105.864,29.808 L116.936,46 L106.056,46 Z M123.208,58.672 L128.136,45.232 L126.664,44.208 L117.896,14.256 L127.496,14.256 L129.992,25.264 L132.296,34.736 L132.552,34.736 L135.624,25.072 L139.016,14.256 L148.68,14.256 L132.424,58.672 L123.208,58.672 Z" id="Flexy" fill="#006EFF"></path>
    </g>
</svg>
