<svg width="149" height="59" xmlns="http://www.w3.org/2000/svg"><path d="M11.016 19.696h17.6v9.024h-17.6V46H.84V1.904h30.784v9.088H11.016v8.704zm34.432 15.296c0 .64.043 1.152.128 1.536.085.384.267.693.544.928.277.235.683.405 1.216.512.533.107 1.248.181 2.144.224L49.608 46c-.725.128-1.461.213-2.208.256a35.67 35.67 0 0 1-2.016.064c-2.133 0-3.819-.224-5.056-.672-1.237-.448-2.165-1.088-2.784-1.92-.619-.832-1.013-1.824-1.184-2.976a26.426 26.426 0 0 1-.256-3.84V.176h9.344v34.816zm36.032-2.24H63.048v.384c0 1.579.48 2.73 1.44 3.456.96.725 2.059 1.088 3.296 1.088.768 0 1.803-.107 3.104-.32 1.301-.213 2.741-.875 4.32-1.984L80.2 41.84c-1.067.981-2.101 1.76-3.104 2.336a15.515 15.515 0 0 1-3.008 1.344 15.17 15.17 0 0 1-3.008.64c-1.003.107-2.016.16-3.04.16-1.877 0-3.69-.235-5.44-.704-1.75-.47-3.285-1.184-4.608-2.144-1.323-.96-2.379-2.187-3.168-3.68-.79-1.493-1.184-3.243-1.184-5.248v-8.192c0-2.048.373-3.84 1.12-5.376a11.64 11.64 0 0 1 3.04-3.904c1.28-1.067 2.752-1.867 4.416-2.4 1.664-.533 3.435-.8 5.312-.8 2.005 0 3.861.277 5.568.832 1.707.555 3.179 1.355 4.416 2.4 1.237 1.045 2.208 2.347 2.912 3.904.704 1.557 1.056 3.36 1.056 5.408v6.336zm-9.472-6.272c0-1.28-.448-2.261-1.344-2.944-.896-.683-1.92-1.024-3.072-1.024-1.195 0-2.25.373-3.168 1.12-.917.747-1.376 1.739-1.376 2.976v.256h8.96v-.384zM106.056 46l-5.44-9.152L95.176 46H84.36l11.008-16.192-10.56-15.552h10.688l5.12 8.704 5.056-8.704h10.752l-10.56 15.552L116.936 46h-10.88zm17.152 12.672l4.928-13.44-1.472-1.024-8.768-29.952h9.6l2.496 11.008 2.304 9.472h.256l3.072-9.664 3.392-10.816h9.664l-16.256 44.416h-9.216z" fill="#006EFF" fill-rule="evenodd"/></svg>